<svg style="display: none" aria-hidden="true" xmlns="http://www.w3.org/2000/svg">
  <defs>
    <symbol id="repeat" viewBox="0 0 24 24"><path d="M17 17v-4h2v6H7v3l-4-4 4-4v3h10zM7 7v4H5V5h12V2l4 4-4 4V7H7z"/></symbol>
    <symbol id="repeat-one" viewBox="0 0 24 24"><path d="M13 15h-1.5v-4H10v-1l2-1h1v6zm4 2v-4h2v6H7v3l-4-4 4-4v3h10zM7 7v4H5V5h12V2l4 4-4 4V7H7z"/></symbol>
    <symbol id="slower" viewBox="0 0 1792 1792"><path d="M1683 141q19-19 32-13t13 32v1472q0 26-13 32t-32-13l-710-710q-9-9-13-19v710q0 26-13 32t-32-13l-710-710q-19-19-19-45t19-45l710-710q19-19 32-13t13 32v710q4-10 13-19z"/></symbol>
    <symbol id="faster" viewBox="0 0 1792 1792"><path d="M109 1651q-19 19-32 13t-13-32v-1472q0-26 13-32t32 13l710 710q9 9 13 19v-710q0-26 13-32t32 13l710 710q19 19 19 45t-19 45l-710 710q-19 19-32 13t-13-32v-710q-4 10-13 19z"/></symbol>
    <symbol id="speed" viewBox="0 0 20 20"><path d="M8.13 13.6c-.7 1.2-.23 2.18.73 2.73.96.56 2.04.47 2.73-.73.68-1.2 5.04-11.86 4.66-12.08-.38-.22-7.44 8.88-8.13 10.08zM10 6c.44 0 .86.04 1.28.1l1.4-1.72C11.84 4.13 10.94 4 10 4 4.4 4 0 8.73 0 14.77c0 .37.02.74.05 1.1.05.55.54.95 1.08.9.55-.04.96-.53.9-1.08-.02-.3-.03-.62-.03-.93C2 9.85 5.5 6 10 6zm7.22 1.25l-.83 2.17c1 1.47 1.6 3.32 1.6 5.35 0 .3 0 .63-.04.94-.05.56.35 1.05.9 1.1h.1c.5 0 .94-.4 1-.9.02-.38.04-.76.04-1.13 0-2.96-1.05-5.6-2.78-7.52z"/></symbol>
    <symbol id="skip-forward" viewBox="0 0 13 17"><path d="M6.44 11.29c1.2 0 2-.7 2-1.7s-.8-1.7-1.7-1.7c-.5 0-.8.2-1 .5h-.1l.1-1.3h2.3v-.8h-3l-.3 2.8h.9c.2-.2.5-.4.8-.4.6 0 1 .3 1 .9 0 .5-.4.9-1 .9-.4 0-.8-.3-.9-.7h-1c.1.9.9 1.5 2 1.5z"/><path d="M8 3L5.4 4.3c-.2.1-.4 0-.4-.3v-.8A5.5 5.5 0 1 0 12 8h1v.5a6.5 6.5 0 1 1-8-6.3V1c0-.3.2-.4.4-.3L8 2V1c0-.3.2-.4.4-.3l3.2 1.6c.2.1.2.3 0 .4L8.4 4.3c-.2.1-.4 0-.4-.3V3z"/></symbol>
    <symbol id="skip-back" viewBox="0 0 13 17"><path d="M6.44 11.29c1.2 0 2-.7 2-1.7s-.8-1.7-1.7-1.7c-.5 0-.8.2-1 .5h-.1l.1-1.3h2.3v-.8h-3l-.3 2.8h.9c.2-.2.5-.4.8-.4.6 0 1 .3 1 .9 0 .5-.4.9-1 .9-.4 0-.8-.3-.9-.7h-1c.1.9.9 1.5 2 1.5z"/><path d="M5 3l2.6 1.3c.2.1.4 0 .4-.3v-.8A5.5 5.5 0 1 1 1 8H0v.5a6.5 6.5 0 1 0 8-6.3V1c0-.3-.2-.4-.4-.3L5 2V1c0-.3-.2-.4-.4-.3L1.4 2.3c-.2.1-.2.3 0 .4l3.2 1.6c.2.1.4 0 .4-.3V3z"/></symbol>
    <symbol id="copy" viewBox="0 0 32 32"><path d="M16 1H4C3 1 2 2 2 3v14h2V3h12V1zm3 4H8C7 5 6 6 6 7v14c0 1 1 2 2 2h11c1 0 2-1 2-2V7c0-1-1-2-2-2zm0 16H8V7h11v14z"/></symbol>
    <symbol id="open" viewBox="0 0 30 28"><path d="M27.83 14.55c0-.44-.49-.55-.83-.55H10a3.6 3.6 0 00-2.45 1.16l-4.6 5.67c-.14.19-.28.39-.28.62 0 .44.49.55.83.55h17c.83 0 1.92-.52 2.45-1.17l4.6-5.67c.14-.18.28-.38.28-.61zM10 12h12V9.5c0-.83-.67-1.5-1.5-1.5h-9A1.5 1.5 0 0110 6.5v-1C10 4.67 9.33 4 8.5 4h-5C2.67 4 2 4.67 2 5.5v13.33l4-4.92C6.9 12.8 8.58 12 10 12zm19.83 2.55c0 .68-.3 1.34-.72 1.87L24.5 22.1c-.9 1.1-2.6 1.91-4 1.91h-17A3.51 3.51 0 010 20.5v-15C0 3.58 1.58 2 3.5 2h5C10.42 2 12 3.58 12 5.5V6h8.5C22.42 6 24 7.58 24 9.5V12h3c1.06 0 2.13.48 2.6 1.48.15.33.23.7.23 1.07z"/></symbol>
  </defs>
</svg>
